<svg width="64" height="64" viewBox="0 0 24 24" fill="none" xmlns="http://www.w3.org/2000/svg">
  <!-- Document outline -->
  <path 
    d="M9 12h6m-6 4h6m2 5H7a2 2 0 01-2-2V5a2 2 0 012-2h5.586a1 1 0 01.707.293l5.414 5.414a1 1 0 01.293.707V19a2 2 0 01-2 2z" 
    stroke="#0ea5e9" 
    stroke-width="1.5" 
    stroke-linecap="round" 
    stroke-linejoin="round"
  />
  <!-- Header line -->
  <path 
    d="M9 8h6" 
    stroke="#0ea5e9" 
    stroke-width="1.5" 
    stroke-linecap="round" 
    stroke-linejoin="round"
  />
  <!-- Vertical divider line -->
  <path 
    d="M12 8v8" 
    stroke="#0ea5e9" 
    stroke-width="1.5" 
    stroke-linecap="round" 
    stroke-linejoin="round"
  />
  <!-- Debit side (left column) -->
  <path 
    d="M9.5 10h2M9.5 13h1.8" 
    stroke="#0ea5e9" 
    stroke-width="1.5" 
    stroke-linecap="round" 
    stroke-linejoin="round"
  />
  <!-- Credit side (right column) -->
  <path 
    d="M12.5 11h2M12.5 14h1.6" 
    stroke="#0ea5e9" 
    stroke-width="1.5" 
    stroke-linecap="round" 
    stroke-linejoin="round"
  />
</svg>
